<mxfile host="app.diagrams.net" modified="2024-08-13T06:52:28.053Z" agent="Mozilla/5.0 (Macintosh; Intel Mac OS X 10_15_7) AppleWebKit/605.1.15 (KHTML, like Gecko) Version/17.4.1 Safari/605.1.15" version="23.1.7" etag="EMbHHzqtEKbzkE1WOluj" type="github">
  <diagram name="Page-1" id="5-ISATZrWmKXZmkfRB5O">
    <mxGraphModel>
      <root>
        <mxCell id="0" />
        <mxCell id="1" parent="0" />
      </root>
    </mxGraphModel>
  </diagram>
</mxfile>
